<?xml version="1.0" standalone="no"?>
<!DOCTYPE svg PUBLIC "-//W3C//DTD SVG 20010904//EN"
 "http://www.w3.org/TR/2001/REC-SVG-20010904/DTD/svg10.dtd">
<svg version="1.0" xmlns="http://www.w3.org/2000/svg"
 width="512.000000pt" height="512.000000pt" viewBox="0 0 512.000000 512.000000"
 preserveAspectRatio="xMidYMid meet">
<metadata>
Created by potrace 1.14, written by Peter Selinger 2001-2017
</metadata>
<g transform="translate(0.000000,512.000000) scale(0.100000,-0.100000)"
fill="#000000" stroke="none">
<path d="M1630 4841 c-47 -12 -90 -46 -110 -86 -18 -38 -20 -63 -20 -323 l0
-282 -112 0 c-65 0 -140 -7 -177 -15 -159 -38 -322 -162 -392 -300 -20 -38
-91 -206 -159 -372 -71 -175 -127 -300 -134 -297 -58 20 -278 74 -302 74 -79
0 -156 -49 -197 -125 -20 -36 -22 -56 -22 -180 0 -133 1 -143 27 -191 43 -81
141 -153 210 -154 58 0 59 -5 22 -96 -42 -103 -86 -269 -111 -419 -16 -100
-18 -178 -18 -855 l0 -745 23 -46 c29 -59 82 -112 141 -141 43 -21 61 -23 264
-26 245 -4 295 4 368 61 23 17 56 57 73 87 l31 55 3 198 4 197 1524 0 1524 0
0 -192 c0 -166 3 -199 19 -234 27 -58 77 -111 135 -142 l51 -27 245 0 245 0
51 27 c59 31 108 84 138 147 21 45 21 55 21 771 0 652 -2 737 -18 840 -24 148
-77 355 -116 449 -34 81 -32 90 24 91 72 1 170 72 211 151 22 45 24 59 24 194
0 160 -9 192 -67 247 -32 31 -101 58 -147 58 -17 0 -94 -17 -171 -39 -77 -21
-143 -36 -146 -32 -3 3 -66 152 -139 331 -72 179 -145 346 -161 371 -37 59
-140 157 -203 194 -103 60 -170 77 -318 83 l-138 5 0 280 c0 318 -4 338 -77
387 l-38 25 -930 1 c-511 1 -941 -1 -955 -5z m530 -266 l0 -45 -85 0 -85 0 0
-190 0 -190 -70 0 -70 0 0 190 0 189 -82 3 -83 3 -3 43 -3 42 240 0 241 0 0
-45z m390 -150 c42 -104 84 -209 93 -232 l17 -43 -69 0 -68 0 -19 53 -19 52
-97 3 -96 3 -20 -53 -20 -53 -66 -3 c-36 -2 -66 1 -66 5 0 4 42 110 92 236
l93 228 84 -3 85 -3 76 -190z m316 128 c22 -38 44 -68 50 -67 5 1 27 31 49 67
l40 67 72 0 c40 0 73 -2 73 -5 0 -3 -36 -60 -80 -125 l-81 -120 79 -98 c43
-53 82 -103 86 -109 5 -10 -10 -13 -66 -13 l-73 0 -37 63 c-67 112 -58 111
-114 19 l-49 -81 -73 -1 c-56 0 -71 3 -66 13 4 6 43 56 86 109 l79 98 -81 120
c-44 65 -80 122 -80 125 0 3 33 5 73 5 l72 0 41 -67z m524 -168 l0 -235 -70 0
-70 0 0 235 0 235 70 0 70 0 0 -235z m420 -494 c64 -34 112 -74 143 -118 32
-48 438 -1036 444 -1083 8 -57 -19 -107 -69 -130 -42 -19 -81 -20 -1766 -20
-1876 0 -1764 -3 -1811 56 -44 56 -33 92 183 618 109 264 206 499 218 522 26
57 94 118 171 155 l62 29 1190 -2 1190 -3 45 -24z m-2212 -1959 c40 -37 45
-74 40 -298 -2 -132 -7 -185 -17 -200 -33 -49 -32 -49 -451 -52 -423 -3 -454
-1 -489 45 -20 24 -21 39 -21 247 0 237 2 245 55 274 14 8 153 11 436 12 l417
0 30 -28z m2828 -6 l34 -34 0 -220 0 -220 -28 -30 c-20 -21 -42 -32 -73 -37
-24 -3 -215 -5 -424 -3 -403 3 -404 3 -436 52 -10 16 -15 70 -17 216 -4 214 3
257 45 289 25 20 37 21 445 21 l420 0 34 -34z"/>
<path d="M2352 4420 l-31 -70 65 0 c35 0 64 3 64 8 0 13 -54 132 -61 132 -3 0
-20 -31 -37 -70z"/>
</g>
</svg>
